<svg width="24" height="31" viewBox="0 0 24 31" fill="none" xmlns="http://www.w3.org/2000/svg">
<path d="M11.7902 1.25C15.5478 1.24999 18.9893 3.13357 20.9327 5.81543C22.8573 8.47141 23.3028 11.8789 21.1661 15.084L16.1759 22.5693C16.171 22.5766 16.1683 22.5802 16.1671 22.582L16.1652 22.5859C16.1639 22.5878 16.1612 22.5914 16.1564 22.5986L15.5411 23.5215C14.9705 24.3775 13.8786 26.0149 11.7902 29.1475C9.70176 26.0149 8.60983 24.3775 8.03918 23.5215L7.41614 22.5869L7.41516 22.5859L7.41321 22.582C7.41198 22.5802 7.40927 22.5766 7.40442 22.5693L2.41418 15.084C0.277544 11.879 0.723093 8.47138 2.64758 5.81543C4.59095 3.13359 8.03255 1.25004 11.7902 1.25Z" fill="white" stroke="#53515E" stroke-width="1.5"/>
<circle cx="11.7899" cy="10.5" r="4.25" fill="white" stroke="#53515E" stroke-width="1.5"/>
</svg>
